<?xml version="1.0" encoding="UTF-8"?> <svg xmlns="http://www.w3.org/2000/svg" xmlns:xlink="http://www.w3.org/1999/xlink" version="1.1" x="0px" y="0px" viewBox="0 0 1080 1080" style="enable-background:new 0 0 1080 1080;" xml:space="preserve"> <style type="text/css"> .st0{display:none;} .st1{display:inline;fill:#4F6DA6;} .st2{fill:#0E3C72;} .st3{fill:#FFFFFF;} .st4{fill-rule:evenodd;clip-rule:evenodd;fill:#D0A63D;} .st5{fill:#D0A63D;} .st6{fill-rule:evenodd;clip-rule:evenodd;fill:#FFFFFF;} </style> <metadata> </metadata> <g id="Layer_6" class="st0"> <rect x="0.2" y="0.3" class="st1" width="1079.8" height="1079.7"></rect> </g> <g id="TX_State"> <path class="st2" d="M373.5,192.4c0,0,161.7-3.2,163.4,0s0,128.4,0,128.4s-11.3-5.4,16.8,17.3c28,22.7,55,14,55,14s1.1-5.4,14,1.6 c12.9,7,3.2,7,27,8.1c23.7,1.1,9.7-9.7,33.4,4.3c23.7,14,9.7,20.5,32.4,16.2s19.4-1.1,33.4-8.6c14-7.6,7.6-12.9,23.7-12.9 s10.8-8.6,28-1.1s21.6,15.1,25.9,19.4c4.3,4.3,3.2,2.6,25.9,4.6c22.7,1.9,27-16.4,28,9.5c1.1,25.9,3.2,23.7,0,36.7 c-3.2,12.9,1.1,8.6,0,23.7c-1.1,15.1,0,28,5.4,33.4c5.4,5.4,2.2-3.2,11.9,14c9.7,17.3,16.2,3.2,18.3,29.1 c2.2,25.9,6.5,22.3,2.2,35.4c-4.3,13.1-8.6,12.1-8.6,23.9s1.1,8.6,0,23.7s11.9,7.6-1.1,15.1c-12.9,7.6-4.3,7.6-29.1,7.6 c-24.8,0-29.1-3.2-44.2-3.2s-21.6,5.4-21.6,12.9s-3.2,8.6,0,14c3.2,5.4,6.5,15.1,6.5,18.3c0,3.2,5.4,0-6.5,11.9 c-11.9,11.9-12.9,8.6-25.9,19.4c-12.9,10.8-11.9,9.7-34.5,24.8c-22.7,15.1-30.2,10.8-42.1,28c-11.9,17.3-18.3,29.1-18.3,34.5 s-3.2,5.4-1.1,21.6c2.2,16.2,7.6,15.1,11.9,35.6s0,4.3,9.7,27s16.2,48.5-5.4,36.7c-21.6-11.9-24.8-19.4-47.5-25.9 c-22.7-6.5-23.7,1.1-42.1-5.4c-18.3-6.5-31.3-28-34.5-32.4c-3.2-4.3-14-20.5-14-35.6c0-15.1-3.2-23.7-8.6-29.1 c-5.4-5.4-13,4.3-24.3-15.1c-11.3-19.4-21-28-26.4-45.3c-5.4-17.3-18.3-46.4-28-60.4c-9.7-14-23.7-17.3-34.5-19.4 c-10.8-2.2,7.6-17.3-27-10.8c-34.5,6.5-23.7-2.2-34.5,6.5c-10.8,8.6-15.1,7.6-19.4,21.6c-4.3,14,4.3,17.3-9.7,24.8 s-20.5,20.5-36.7,5.4c-16.2-15.1-16.2-14-30.2-24.8c-14-10.8-20.5-5.4-24.8-23.7c-4.3-18.3,0-14-4.3-33.4 c-4.3-19.4-14-25.9-18.3-31.3c-4.3-5.4-42.1-30.2-51.8-41c-9.7-10.8-14-15.1-20.5-20.5c-6.5-5.4-17.3-10.8-15.1-18.3 c2.2-7.6-15.1-12.9,4.3-12.9c19.4,0,204.9,5.4,204.9,5.4L373.5,192.4z"></path> </g> <g id="JULIE_JOHNSON"> <g> <g> <path class="st3" d="M69.5,606.2c19.1-4.9,37.6-16.7,43.2-48.5l20.8-115.2l34.5-7.4l-20.8,115.2c-8.5,47.6-40.7,76.5-77.7,84.4 V606.2z"></path> <path class="st3" d="M179.1,519.4l16.2-90.3l34.5-7.4l-16,89.2c-3.7,19.8,3.5,26.5,19.9,23c16.4-3.5,26.4-13.9,29.9-33.7 l16.2-89.3l34.3-7.4L298,493.9c-7.7,42.5-32.8,61.6-69.6,69.5C191.8,571.2,171.5,561.9,179.1,519.4z"></path> <path class="st3" d="M417,492.7l-5.2,29.4L316,542.6l26.2-145l34.5-7.4l-20.8,115.6L417,492.7z"></path> <path class="st3" d="M453.8,373.6l34.5-7.4l-26.2,145l-34.5,7.4L453.8,373.6z"></path> <path class="st3" d="M546.6,382l-5,28.4l47.8-10.3l-5.4,29l-47.6,10.2l-5.2,28.8l66.9-14.4l-5.4,29.4L491.4,505l26.2-145 l100.3-21.5l-10,30.4L546.6,382z"></path> <path class="st3" d="M69.5,841.8c19.1-4.9,37.6-16.7,43.2-48.5L133.4,678l34.5-7.4l-20.8,115.2c-8.5,47.6-40.7,76.5-77.7,84.4 V841.8z"></path> <path class="st3" d="M175.8,738.4c8.1-44.5,40.7-80.2,82.3-89.1c41.5-8.9,63.6,15,55.5,59.6c-8.1,44.9-40.7,80.2-82.3,89.1 C189.7,806.9,167.7,783.4,175.8,738.4z M278,716.5c5.2-28.2-4.4-42.3-25.6-37.7c-20.8,4.5-36.1,23.9-41.3,52.1 c-5,28.2,4.4,42.3,25.6,37.7C257.7,764.1,273,744.7,278,716.5z"></path> <path class="st3" d="M466.3,606.6l-26.2,145l-34.5,7.4l10.6-59l-49.4,10.6l-10.6,59l-34.5,7.4l26.2-145l34.5-7.4l-10.2,56.6 l49.4-10.6l10.2-56.6L466.3,606.6z"></path> <path class="st3" d="M614,574.9l-26.2,145l-36.6,7.9l-32.8-71.3L503.6,738l-34.5,7.4l26.2-145l37.6-8.1l31.6,73.9l15-83.9 L614,574.9z"></path> <path class="st3" d="M609.4,704.3l9.8-29.2c11.4,3.8,23.9,6.8,41.8,3c14.5-3.1,25.3-9,26.8-18.1c1-5.9-1.9-9.8-10.2-11.8 l-22.2-5.4c-19.9-4.8-27.6-14.1-24.5-32.6c5.2-28.8,31-47.5,61.7-54.1c15-3.2,32.2-3.8,43.4-0.9l-9.6,29 c-9.3-2.7-23.1-2.1-34.5,0.3c-13.7,2.9-23.7,8.2-25.1,16.4c-1,4.9,1.7,8.3,9.3,9.8l23.7,5.7c19.5,4.6,26.8,16.6,23.9,33.9 c-5,27.6-31.2,49.3-65.2,56.6C639.3,711,620.8,709.8,609.4,704.3z"></path> <path class="st3" d="M741.3,617c8.1-44.5,40.7-80.2,82.3-89.1c41.5-8.9,63.6,15,55.5,59.6c-8.1,44.9-40.7,80.2-82.3,89.1 C755.2,685.5,733.2,662,741.3,617z M843.5,595.1c5.2-28.2-4.4-42.3-25.6-37.7c-20.8,4.5-36.1,23.9-41.3,52.1 c-5,28.2,4.4,42.3,25.6,37.7C823.2,642.6,838.5,623.2,843.5,595.1z"></path> <path class="st3" d="M1032,485.1l-26.2,145l-36.6,7.9l-32.8-71.3l-14.8,81.5l-34.5,7.4l26.2-145l37.6-8.1l31.6,73.9l15-83.9 L1032,485.1z"></path> </g> </g> </g> <g id="Gold_Line"> <polygon class="st4" points="1006.2,452.5 142.9,638.2 146.6,616.8 1009.9,431.1 "></polygon> </g> <g id="For_US_Congress"> <g> <g> <path class="st5" d="M644.6,392.3l9.6-62.2l27.4-5.9l-2.2,13.9l-15.1,3.3l-1.6,10.6l14.6-3.1l-2.2,13.9l-14.6,3.1l-3.7,23.7 L644.6,392.3z"></path> <path class="st5" d="M681.3,355.8c3-19.2,16.4-36.1,31.6-39.4c14.6-3.2,24.3,8.3,21.6,26.1c-2.8,18.4-16.6,35.2-30.9,38.3 C689.6,383.8,678.4,374.2,681.3,355.8z M721.6,345.8c1.5-9.7-2.8-17.2-10.8-15.4c-8,1.7-14.9,11.3-16.4,21.1 c-1.6,10.2,2.8,17.3,11,15.5C713.2,365.2,720.1,355.7,721.6,345.8z"></path> <path class="st5" d="M760.5,367.3l-8.5-17.6l-0.1,0l-3.1,20.1l-12.3,2.6l9.6-62.2l16.4-3.5c5.2-1.1,9.1-1.1,11.5-0.3 c5,1.9,7.6,8.3,6.3,17.2c-1.5,9.8-7.5,18.9-15.5,22.3l10.3,18.2L760.5,367.3z M758.3,337.9c5.1-1.1,8.6-4.7,9.6-10.7 c0.8-5.4-2-7.7-6.8-6.7l-4.9,1.1l-2.7,17.3L758.3,337.9z"></path> <path class="st5" d="M836.8,290.8l12.8-2.8l-5.9,38.1c-1,6.5-2.6,11.5-4.8,15.2c-4.3,7.4-10.6,12.5-18.2,14.2 c-4.2,0.9-7.6,0.7-10.2-0.8c-5.2-3-7.2-8.2-5.3-20.2l5.9-38.1l12.8-2.8l-5.9,37.9c-1.2,7.7,0.2,11.1,4.7,10.1 c4.3-0.9,6.8-4.1,8.1-12.8L836.8,290.8z"></path> <path class="st5" d="M847.9,348.5l2.2-14.3l11.7-2.5l-2.2,14.3L847.9,348.5z"></path> <path class="st5" d="M895.3,295.7c0.1-4.3-1.1-5.6-3.6-5.1c-2.4,0.5-4.7,3.1-5.2,5.8c-0.6,3.7,1.9,4.8,6.9,6.5 c10.1,3.5,12.1,7.9,10.9,16c-1.9,12-9.6,20.5-20.4,22.8c-10.9,2.4-17-3.2-14.9-16.5l0.2-1.3l12.7-2.7c-0.7,5.1,0.8,8,4,7.3 c2.6-0.6,5.2-3.6,5.7-7c0.8-5-4.5-5.9-8.6-7.2c-7.6-2.3-10.5-6.9-9.2-15c1.6-10.6,11.1-20.1,20.3-22.1c3.3-0.7,6.1-0.4,8.5,0.7 c4.8,2.3,6.6,6.7,5.4,15L895.3,295.7z"></path> <path class="st5" d="M909.3,335.2l2.2-14.3l11.7-2.5l-2.2,14.3L909.3,335.2z"></path> <path class="st5" d="M673.9,430c-1.1-6.3-5.2-9.3-10.5-8.2c-8,1.7-14.7,11.4-16.2,21c-1.6,10.1,2.7,17.3,10.6,15.6 c5.1-1.1,10-5.6,13.7-13.1l13.4-2.9c-5.4,15.6-17.3,27.4-29.1,29.9c-7,1.5-13.1-0.1-17.3-5.3c-4.4-5.4-5.5-12.8-4-22.2 c2.5-16.5,16.3-33.8,30.6-36.9c6.9-1.5,12.1-0.3,16.3,3.9c4,4,5.9,9.1,5.8,15.3L673.9,430z"></path> <path class="st5" d="M690.4,435c3-19.2,16.4-36.1,31.6-39.4c14.6-3.2,24.3,8.3,21.6,26.1c-2.8,18.4-16.6,35.2-30.9,38.3 C698.7,463,687.6,453.4,690.4,435z M730.7,425c1.5-9.7-2.8-17.2-10.8-15.4c-8,1.7-14.9,11.3-16.4,21.1 c-1.6,10.2,2.8,17.3,11,15.5C722.3,444.4,729.2,434.9,730.7,425z"></path> <path class="st5" d="M776.8,445l-13.4-33.8l-5.5,37.9l-12.3,2.6l9.6-62.2l11-2.4l13.4,35.1l5.5-39.2l12.3-2.6l-9.6,62.2 L776.8,445z"></path> <path class="st5" d="M853.2,397.8c-2.6,16.7-15,35.2-31.9,38.9c-14.8,3.2-24.4-8.6-21.6-26.9c2.9-18.8,17.2-34.7,31.8-37.8 c11.3-2.4,20.7,4.7,21.7,16.6l-14.4,3.1c-1.6-4.6-5-6.7-9.8-5.7c-8.1,1.7-14.9,11-16.5,21c-1.6,10.3,2.4,17.5,10.9,15.7 c6-1.3,11-5.9,13.5-12.6l-15,3.2l2-12.7l29.8-6.4L853.2,397.8z"></path> <path class="st5" d="M878.8,423l-8.5-17.6l-0.1,0l-3.1,20.1l-12.3,2.6l9.6-62.2l16.4-3.5c5.2-1.1,9.1-1.1,11.5-0.3 c5,1.9,7.6,8.3,6.3,17.2c-1.5,9.8-7.5,18.9-15.5,22.3l10.3,18.2L878.8,423z M876.6,393.6c5.1-1.1,8.6-4.7,9.6-10.7 c0.8-5.4-2-7.7-6.8-6.7l-4.9,1.1l-2.7,17.3L876.6,393.6z"></path> <path class="st5" d="M899.1,418.6l9.6-62.2l27.8-6l-2.2,13.9l-15.6,3.4l-1.5,9.7l15.1-3.3l-2.2,13.9l-15.1,3.3l-1.6,10.7 l15.6-3.4l-2.2,13.9L899.1,418.6z"></path> <path class="st5" d="M961.3,362.7c0.1-4.3-1.1-5.6-3.6-5.1c-2.4,0.5-4.7,3.1-5.2,5.8c-0.6,3.7,1.9,4.8,6.9,6.5 c10.1,3.5,12.1,7.9,10.9,16c-1.9,12-9.6,20.5-20.4,22.8c-10.9,2.4-17-3.2-14.9-16.5l0.2-1.3l12.7-2.7c-0.7,5.1,0.8,8,4,7.3 c2.6-0.6,5.2-3.6,5.7-7c0.8-5-4.5-5.9-8.6-7.2c-7.6-2.3-10.5-6.9-9.2-15c1.6-10.6,11.1-20.1,20.3-22.1c3.3-0.7,6.1-0.4,8.5,0.7 c4.8,2.3,6.6,6.7,5.4,15L961.3,362.7z"></path> <path class="st5" d="M1000.1,354.3c0.1-4.3-1.1-5.6-3.6-5.1c-2.4,0.5-4.7,3.1-5.2,5.8c-0.6,3.7,1.9,4.8,6.9,6.5 c10.1,3.5,12.1,7.9,10.9,16c-1.9,12-9.6,20.5-20.4,22.8c-10.9,2.4-17-3.2-14.9-16.5l0.2-1.3l12.7-2.7c-0.7,5.1,0.8,8,4,7.3 c2.6-0.6,5.2-3.6,5.7-7c0.8-5-4.5-5.9-8.6-7.2c-7.6-2.3-10.5-6.9-9.2-15c1.6-10.6,11.1-20.1,20.3-22.1c3.3-0.7,6.1-0.4,8.5,0.7 c4.8,2.3,6.6,6.7,5.4,15L1000.1,354.3z"></path> </g> </g> </g> <g id="Star"> <polygon class="st6" points="576.4,492.4 567.4,520.4 538,520.3 561.8,537.6 552.6,565.5 576.4,548.2 600.1,565.5 591,537.6 614.8,520.3 585.4,520.4 "></polygon> </g> </svg> 